<?xml version="1.0" encoding="UTF-8"?>
<svg width="112px" height="70px" viewBox="0 0 112 70" version="1.1" xmlns="http://www.w3.org/2000/svg" xmlns:xlink="http://www.w3.org/1999/xlink">
    <title>no_thumbnail_small_DEV</title>
    <defs>
        <rect id="path-1" x="0" y="0" width="112" height="70"></rect>
    </defs>
    <g id="no_thumbnail_small_DEV" stroke="none" stroke-width="1" fill="none" fill-rule="evenodd">
        <g id="image">
            <mask id="mask-2" fill="white">
                <use xlink:href="#path-1"></use>
            </mask>
            <use id="Background" fill="#2A4560" xlink:href="#path-1"></use>
            <path d="M84.099543,17 C87.5539495,17 90.8180731,18.6006212 92.9580633,21.3439332 L112,47.030506 C111.995293,50.2732581 111.991582,53.17266 111.988869,55.7287116 L111.988001,56.5680122 C111.987586,56.9813041 111.987198,57.3850585 111.986838,57.7792754 L111.986155,58.5549926 C111.986047,58.6821594 111.985943,58.8082664 111.985841,58.9333137 L111.985011,60.0301269 C111.984928,60.1488159 111.984848,60.2664451 111.984771,60.3830146 L111.984161,61.4035278 C111.984103,61.513739 111.984048,61.6228904 111.983995,61.7309822 L111.983995,66.324881 C111.984048,66.3969421 111.984103,66.4679436 111.984161,66.5378853 L111.984771,67.1387482 C111.984848,67.2023315 111.984928,67.2648552 111.985011,67.3263191 L111.985841,67.8508819 C111.985943,67.9059875 111.986047,67.9600334 111.986155,68.0130196 L111.986838,68.3182197 C111.987198,68.4644615 111.987586,68.6011658 111.988001,68.7283325 L111.988869,68.9699493 C111.991582,69.6566498 111.995293,70 112,70 L0,70 L0,58.4467606 L17.0117688,40.6374034 C21.4065789,36.2487477 28.4720173,36.2487477 32.8668273,40.6374034 L39.0734338,46.7450996 C41.3582479,49.0787326 44.5259133,50.3037283 47.7668476,50.107006 C51.007782,49.9102837 54.0079371,48.3109059 56.0005426,45.7176367 L75.2410228,21.3439332 C77.3810129,18.6006212 80.6451366,17 84.099543,17 Z M40,12 C43.3137085,12 46,14.6862915 46,18 C46,21.3137085 43.3137085,24 40,24 C36.6862915,24 34,21.3137085 34,18 C34,14.6862915 36.6862915,12 40,12 Z" id="Combined-Shape" fill="#384E66"></path>
        </g>
    </g>
</svg>