<?xml version="1.0" encoding="UTF-8"?>
<svg width="304px" height="200px" viewBox="0 0 304 200" version="1.1" xmlns="http://www.w3.org/2000/svg" xmlns:xlink="http://www.w3.org/1999/xlink">
    <title>no_thumbnail_DEV</title>
    <defs>
        <rect id="path-1" x="0" y="0" width="304" height="200"></rect>
    </defs>
    <g id="no_thumbnail_DEV" stroke="none" stroke-width="1" fill="none" fill-rule="evenodd">
        <g id="image">
            <mask id="mask-2" fill="white">
                <use xlink:href="#path-1"></use>
            </mask>
            <use id="Background" fill="#2A4560" xlink:href="#path-1"></use>
            <path d="M228.270188,57 C237.646434,57 246.506199,61.3186572 252.314743,68.7204236 L304,138.025705 C303.976469,154.139022 303.962116,167.110242 303.956939,176.939365 L303.956215,178.426748 C303.956106,178.670513 303.956004,178.912213 303.955907,179.151847 L303.955038,181.928296 C303.95499,182.151403 303.954948,182.372445 303.954912,182.59142 L303.954912,186.309878 C303.954948,186.504064 303.95499,186.696185 303.955038,186.886239 L303.955907,189.067734 C303.956004,189.241262 303.956106,189.412725 303.956215,189.582121 L303.956939,190.57371 C303.962116,196.857903 303.976469,200 304,200 L0,200 L0,168.828052 L46.174801,120.77639 C58.1035712,108.9353 77.2811897,108.9353 89.2099598,120.77639 L106.056463,137.255646 C112.258102,143.552052 120.85605,146.857229 129.652872,146.32645 C138.449694,145.795671 146.592972,141.480369 152.001473,134.483435 L204.225633,68.7204236 C210.034178,61.3186572 218.893942,57 228.270188,57 Z M108,43 C116.836556,43 124,50.163444 124,59 C124,67.836556 116.836556,75 108,75 C99.163444,75 92,67.836556 92,59 C92,50.163444 99.163444,43 108,43 Z" id="Combined-Shape" fill="#384E66"></path>
        </g>
    </g>
</svg>